<?xml version="1.0" standalone="no"?><!DOCTYPE svg PUBLIC "-//W3C//DTD SVG 1.1//EN" "http://www.w3.org/Graphics/SVG/1.1/DTD/svg11.dtd"><svg t="1708494512956" class="icon" viewBox="0 0 1024 1024" version="1.1" xmlns="http://www.w3.org/2000/svg" p-id="2624" xmlns:xlink="http://www.w3.org/1999/xlink" width="200" height="200"><path d="M451.669333 994.688c0 0 247.765333-247.765333 271.530667-271.445333 116.608-116.650667 116.522667-305.749333 0-422.357333-50.56-50.56-114.730667-78.634667-180.693333-85.290667L475.434667 389.973333c43.562667-13.013333 92.629333-2.858667 127.104 31.573333 50.005333 49.962667 50.005333 131.029333 0 180.992L451.669333 994.688z" p-id="2625" fill="#13227a"></path><path d="M572.330667 29.312c0 0-246.698667 246.656-271.530667 271.488-116.608 116.608-116.608 305.706667 0 422.357333 50.56 50.517333 114.773333 78.677333 180.736 85.248l67.029333-174.336c-43.605333 13.013333-92.672 2.901333-127.104-31.573333-50.005333-49.962667-50.005333-131.029333 0-181.034667L572.330667 29.312z" p-id="2626" fill="#13227a"></path></svg>